<svg width="216" height="72" viewBox="0 0 216 72" fill="none" xmlns="http://www.w3.org/2000/svg">
<mask id="mask0_1_384" style="mask-type:alpha" maskUnits="userSpaceOnUse" x="0" y="0" width="216" height="72">
<rect width="216" height="72" fill="white"/>
</mask>
<g mask="url(#mask0_1_384)">
<path fill-rule="evenodd" clip-rule="evenodd" d="M0 0.0382699C19.0233 0.908112 34.2324 16.6713 34.2324 35.9227C34.2324 47.237 43.4315 56.4441 54.7403 56.4441C66.049 56.4441 75.2482 47.2378 75.2482 35.9219C75.2482 24.602 66.0458 15.3988 54.7387 15.3988V10.2611C68.8746 10.2611 80.3763 21.7716 80.3763 35.9219C80.3763 50.069 68.8754 61.5786 54.7403 61.5786C40.6043 61.5786 29.1042 50.0682 29.1042 35.9227H29.1066C29.1066 19.4985 16.1945 6.03787 0 5.17202V0.0374726V0.0382699ZM0 15.2761V10.1894C13.53 10.9141 24.3078 22.0028 24.3078 35.5272C24.3078 52.3181 38.1551 65.9773 55.174 65.9773V65.9741C72.1929 65.9741 86.0419 52.3157 86.0419 35.528H86.0395L86.0419 35.524C86.0419 15.937 102.195 0 122.051 0C141.908 0 158.06 15.937 158.06 35.524H152.918C152.918 18.7339 139.07 5.07235 122.051 5.07235C105.031 5.07235 91.1828 18.7339 91.1828 35.524H91.186L91.1828 35.528C91.1828 55.1142 75.0297 71.0488 55.174 71.0488V71.0528C35.3143 71.0528 19.1644 55.1142 19.1644 35.528C19.1644 24.8005 10.6893 15.9928 0 15.2761ZM0 20.9791C7.39406 21.9797 13.113 28.3317 13.113 36H8.06299C8.06299 31.1254 4.59557 27.0472 0 26.0993V20.9791ZM216.065 0.0199322V5.13614C215.659 5.12019 215.252 5.11222 214.846 5.11222V5.11302C197.803 5.11302 183.937 18.8862 183.937 35.8087L183.933 35.811C183.933 44.2703 177.001 51.1581 168.482 51.1581V46.0427C174.16 46.0427 178.781 41.4511 178.781 35.811L178.787 35.8079C178.787 16.063 194.96 0 214.846 0C215.254 0 215.66 0.00637831 216.065 0.0199322ZM216.065 10.2834V15.4204C215.719 15.4036 215.372 15.3949 215.021 15.3949C203.645 15.3949 194.393 24.602 194.393 35.9187L194.399 35.9203C194.399 50.0594 182.846 61.5611 168.644 61.5786C154.44 61.5611 142.893 50.0578 142.893 35.9203H142.892C142.892 24.602 133.639 15.3917 122.266 15.3917C110.893 15.3917 101.64 24.6004 101.64 35.9195C101.64 47.2362 110.893 56.4417 122.264 56.4417V61.5762C108.049 61.5762 96.4832 50.069 96.4816 35.9195C96.4832 21.77 108.049 10.2603 122.266 10.2603C136.485 10.2603 148.05 21.7716 148.05 35.9203H148.049C148.049 47.2266 157.285 56.4281 168.644 56.4425C180.006 56.4281 189.241 47.2266 189.241 35.9203L189.24 35.9187C189.24 21.7716 200.803 10.2627 215.021 10.2627C215.371 10.2627 215.719 10.2699 216.065 10.2834ZM216.065 25.9175C215.575 25.8465 215.081 25.8106 214.586 25.8106C208.926 25.8106 204.323 30.415 204.323 36.0733L204.311 36.0789C204.311 55.8836 188.199 72 168.395 72C148.59 72 132.482 55.8844 132.482 36.0789H137.61C137.61 53.0572 151.42 66.8702 168.395 66.8702V66.8694C185.371 66.8694 199.183 53.0572 199.183 36.0789L199.193 36.0733C199.193 27.587 206.098 20.6793 214.585 20.6793V20.6817V20.6793C215.085 20.6793 215.578 20.7032 216.065 20.7495V25.9175ZM54.7953 51.1581C46.4389 51.1581 39.6388 44.3572 39.6388 36.0048H44.6905C44.6905 41.5723 49.2254 46.1032 54.7953 46.1032V46.1064C60.3675 46.1064 64.9017 41.5738 64.9025 36.0048V35.9968C64.9025 30.4222 60.3699 25.8896 54.7953 25.8896V20.8427C63.1557 20.8427 69.9557 27.6388 69.955 35.996H69.9534L69.955 36.004C69.955 44.3596 63.1557 51.1605 54.7961 51.1581V51.1549V51.1581H54.7953ZM106.902 36.0008C106.902 27.6404 113.703 20.8419 122.06 20.8419V25.8928C116.489 25.8928 111.957 30.4262 111.957 36.0008C111.957 41.5738 116.489 46.1072 122.06 46.1072V51.1581C113.702 51.1581 106.902 44.3588 106.902 36.0008Z" fill="#D62829"/>
</g>
</svg>
