<svg width="171" height="82" viewBox="0 0 171 82" fill="none" xmlns="http://www.w3.org/2000/svg">
<path d="M154.101 22.2456C154.101 10.0785 144.254 0.198914 132.054 0.198914C119.887 0.198914 110.007 10.0785 110.007 22.2456C110.007 28.3458 112.494 33.8492 116.472 37.8275C116.804 38.159 117.235 38.358 117.732 38.358C118.727 38.358 119.522 37.5623 119.522 36.5677C119.522 36.0704 119.323 35.6063 118.992 35.2747C115.676 31.9594 113.621 27.318 113.621 22.2456C113.621 12.0677 121.876 3.77943 132.054 3.77943C142.232 3.77943 150.52 12.0677 150.52 22.2456C150.52 27.3512 148.465 31.9594 145.116 35.3079L129.534 50.8898L132.054 53.4426L147.669 37.8275C151.647 33.8492 154.101 28.3458 154.101 22.2456Z" fill="#D9232E"/>
<path d="M142.265 26.4892L136.762 12.5981L132.12 20.7206L127.479 12.5981L121.976 26.4892H120.384V28.5779H128.673V26.4892H127.446L128.639 23.0413L132.12 28.7436L135.601 23.0413L136.795 26.4892H135.568V28.5779H143.89V26.4892H142.265Z" fill="#D9232E"/>
<path d="M101.321 58.0663H102.449L104.703 63.5365L107.057 58.0663H108.184L109.61 66.5534H107.952L107.189 61.4147L104.902 66.6861H104.438L102.25 61.4147L101.421 66.5534H99.7632L101.321 58.0663Z" fill="#D9232E"/>
<path fill-rule="evenodd" clip-rule="evenodd" d="M116.605 63.8681C116.605 62.9729 116.24 62.2104 115.677 61.7463C115.212 61.3153 114.516 60.9838 113.488 60.9838C112.461 60.9838 111.765 61.3153 111.3 61.7463C110.77 62.2104 110.405 62.9729 110.405 63.8681C110.405 64.73 110.77 65.4926 111.3 65.9899C111.765 66.4208 112.461 66.7524 113.488 66.7524C114.516 66.7524 115.212 66.4208 115.677 65.9899C116.24 65.4926 116.605 64.73 116.605 63.8681ZM113.488 62.3099C114.384 62.3099 115.014 63.0061 115.014 63.8681C115.014 64.6969 114.384 65.3931 113.488 65.3931C112.593 65.3931 111.963 64.6969 111.963 63.8681C111.963 63.0061 112.627 62.3099 113.488 62.3099Z" fill="#D9232E"/>
<path d="M121.677 62.8072C121.346 62.5088 120.948 62.3099 120.417 62.3099C119.39 62.3099 118.892 63.0724 118.892 63.8681C118.892 64.73 119.555 65.3931 120.484 65.3931C120.815 65.3931 121.246 65.2936 121.677 64.929V66.4208C121.379 66.5535 120.882 66.7524 120.252 66.7524C119.423 66.7524 118.66 66.4208 118.163 65.9567C117.765 65.5589 117.301 64.8958 117.301 63.8681C117.301 62.9398 117.699 62.1773 118.262 61.68C118.926 61.0832 119.688 60.9838 120.218 60.9838C120.782 60.9838 121.246 61.0832 121.677 61.2821V62.8072Z" fill="#D9232E"/>
<path d="M124.164 61.1495V63.2382L126.186 61.1495H128.109L125.656 63.5697L128.208 66.5535H126.252L124.396 64.3322L124.164 64.5643V66.5535H122.639V61.1495H124.164Z" fill="#D9232E"/>
<path fill-rule="evenodd" clip-rule="evenodd" d="M134.64 63.8681C134.64 62.9729 134.275 62.2104 133.712 61.7463C133.281 61.3153 132.551 60.9838 131.524 60.9838C130.496 60.9838 129.8 61.3153 129.336 61.7463C128.805 62.2104 128.44 62.9729 128.44 63.8681C128.44 64.73 128.805 65.4926 129.336 65.9899C129.8 66.4208 130.496 66.7524 131.524 66.7524C132.551 66.7524 133.281 66.4208 133.712 65.9899C134.275 65.4926 134.64 64.73 134.64 63.8681ZM131.524 62.3099C132.419 62.3099 133.049 63.0061 133.049 63.8681C133.049 64.6969 132.419 65.3931 131.524 65.3931C130.662 65.3931 129.999 64.6969 129.999 63.8681C129.999 63.0061 130.662 62.3099 131.524 62.3099Z" fill="#D9232E"/>
<path fill-rule="evenodd" clip-rule="evenodd" d="M139.314 61.4811C138.884 61.1495 138.386 61.1495 138.022 61.1495H135.635V66.5535H138.419C138.651 66.5535 139.215 66.5535 139.646 66.2219C139.911 66.023 140.21 65.6583 140.21 65.0284C140.21 64.5311 140.044 64.2328 139.812 64.0007C139.613 63.8349 139.348 63.7023 139.082 63.636C139.58 63.4371 139.845 63.0061 139.845 62.542C139.845 62.0778 139.613 61.7131 139.314 61.4811ZM137.856 63.3045C137.889 63.3045 138.088 63.3045 138.254 63.205C138.386 63.1056 138.453 62.9729 138.453 62.8403C138.453 62.6414 138.386 62.5088 138.287 62.4425C138.154 62.343 137.988 62.343 137.823 62.343H137.16V63.3045H137.856ZM137.889 65.36C138.022 65.36 138.287 65.36 138.453 65.2273C138.552 65.161 138.651 64.9953 138.651 64.7964C138.651 64.5974 138.552 64.4648 138.453 64.3985C138.287 64.2991 138.055 64.2659 137.922 64.2659H137.16V65.36H137.889Z" fill="#D9232E"/>
<path d="M145.249 62.8072C144.917 62.5088 144.52 62.3099 143.989 62.3099C142.961 62.3099 142.464 63.0724 142.464 63.8681C142.464 64.73 143.127 65.3931 144.022 65.3931C144.387 65.3931 144.818 65.2936 145.249 64.929V66.4208C144.951 66.5535 144.453 66.7524 143.823 66.7524C142.995 66.7524 142.232 66.4208 141.735 65.9567C141.337 65.5589 140.873 64.8958 140.873 63.8681C140.873 62.9398 141.271 62.1773 141.801 61.68C142.464 61.0832 143.26 60.9838 143.757 60.9838C144.321 60.9838 144.785 61.0832 145.249 61.2821V62.8072Z" fill="#D9232E"/>
<path d="M147.735 61.1495V63.2382L149.758 61.1495H151.648L149.194 63.5697L151.78 66.5535H149.824L147.968 64.3322L147.735 64.5643V66.5535H146.21V61.1495H147.735Z" fill="#D9232E"/>
<path d="M153.802 61.1495V64.498L156.289 61.1495H157.847V66.5535H156.289V63.2382L153.802 66.5535H152.277V61.1495H153.802Z" fill="#D9232E"/>
<path fill-rule="evenodd" clip-rule="evenodd" d="M161.859 60.1881C162.555 60.1881 163.549 59.956 163.914 58.8951L162.92 58.431C162.787 58.9614 162.323 59.2266 161.859 59.2266C161.361 59.2266 160.93 58.8951 160.831 58.431L159.836 58.8951C160.201 59.956 161.196 60.1881 161.859 60.1881ZM160.632 64.498V61.1495H159.107V66.5534H160.632L163.118 63.2381V66.5534H164.643V61.1495H163.118L160.632 64.498Z" fill="#D9232E"/>
<path d="M94.8233 69.9351H95.9505L98.2049 75.4053L100.592 69.9351H101.719L103.112 78.4222H101.454L100.725 73.2835L98.4038 78.5548H97.9729L95.7848 73.2835L94.9228 78.4222H93.2651L94.8233 69.9351Z" fill="#D9232E"/>
<path fill-rule="evenodd" clip-rule="evenodd" d="M106.825 78.6211C108.714 78.6211 109.344 77.3281 109.51 76.9303L108.084 76.6982C107.852 77.1292 107.421 77.3944 106.825 77.3944C106.261 77.3944 105.896 77.1292 105.731 76.8971C105.565 76.6651 105.465 76.3004 105.465 75.9689H109.543V75.8694C109.543 75.2727 109.477 74.4107 108.88 73.7145C108.515 73.2835 107.886 72.8193 106.758 72.8193C106.128 72.8193 105.366 72.9851 104.736 73.615C104.338 73.9797 103.907 74.6427 103.907 75.7368C103.907 76.5656 104.139 77.295 104.769 77.8586C105.3 78.3559 105.963 78.6211 106.825 78.6211ZM106.825 73.9134C107.355 73.9134 107.985 74.2781 108.084 75.0074H105.532C105.664 74.2781 106.261 73.9134 106.825 73.9134Z" fill="#D9232E"/>
<path d="M112.892 74.2449V78.2233H111.234V74.2449H109.576V72.9188H114.218V74.2449H112.892Z" fill="#D9232E"/>
<path fill-rule="evenodd" clip-rule="evenodd" d="M115.013 81.3396H116.538V77.726C117.135 78.5548 117.931 78.6211 118.262 78.6211C119.887 78.6211 120.981 77.3613 120.981 75.7036C120.981 74.0791 119.92 72.8193 118.329 72.8193C117.865 72.8193 117.102 72.9519 116.538 73.7145V73.0183H115.013V81.3396ZM117.898 77.2618C117.036 77.2618 116.406 76.5656 116.406 75.7036C116.406 74.8417 117.036 74.1786 117.898 74.1786C118.793 74.1786 119.39 74.8417 119.39 75.7036C119.39 76.5656 118.793 77.2618 117.898 77.2618Z" fill="#D9232E"/>
<path fill-rule="evenodd" clip-rule="evenodd" d="M127.91 75.7368C127.91 74.8417 127.545 74.0791 126.982 73.615C126.518 73.184 125.821 72.8193 124.794 72.8193C123.766 72.8193 123.07 73.184 122.606 73.615C122.075 74.0791 121.71 74.8417 121.71 75.7368C121.71 76.5988 122.075 77.3613 122.606 77.8586C123.07 78.2564 123.766 78.6211 124.794 78.6211C125.821 78.6211 126.518 78.2564 126.982 77.8586C127.545 77.3613 127.91 76.5988 127.91 75.7368ZM124.794 74.1786C125.689 74.1786 126.319 74.8748 126.319 75.7368C126.319 76.5656 125.689 77.2618 124.794 77.2618C123.899 77.2618 123.269 76.5656 123.269 75.7368C123.269 74.8748 123.932 74.1786 124.794 74.1786Z" fill="#D9232E"/>
<path d="M133.778 72.9188V78.2233H132.452V74.2449H130.131V78.2233H128.805V72.9188H133.778Z" fill="#D9232E"/>
<path fill-rule="evenodd" clip-rule="evenodd" d="M141.237 75.7368C141.237 74.8417 140.84 74.0791 140.309 73.615C139.845 73.184 139.149 72.8193 138.121 72.8193C137.093 72.8193 136.397 73.184 135.933 73.615C135.402 74.0791 135.005 74.8417 135.005 75.7368C135.005 76.5988 135.402 77.3613 135.933 77.8586C136.397 78.2564 137.093 78.6211 138.121 78.6211C139.149 78.6211 139.845 78.2564 140.309 77.8586C140.84 77.3613 141.237 76.5988 141.237 75.7368ZM138.121 74.1786C138.983 74.1786 139.646 74.8748 139.646 75.7368C139.646 76.5656 139.016 77.2618 138.121 77.2618C137.226 77.2618 136.596 76.5656 136.596 75.7368C136.596 74.8748 137.259 74.1786 138.121 74.1786Z" fill="#D9232E"/>
<path d="M147.039 78.4222H145.481V74.3112H144.022V76.3004C144.022 76.7314 143.956 77.4276 143.492 77.8917C143.392 78.0243 142.928 78.4885 142.033 78.4885C141.9 78.4885 141.735 78.4553 141.602 78.4222V77.1292C141.668 77.1292 141.768 77.1624 141.834 77.1624C142.166 77.1624 142.365 77.0298 142.464 76.8971C142.63 76.6982 142.63 76.433 142.63 76.2009V73.0182H147.039V78.4222Z" fill="#D9232E"/>
<path d="M149.824 73.0182V76.3667L152.311 73.0182H153.836V78.4222H152.311V75.0737L149.824 78.4222H148.299V73.0182H149.824Z" fill="#D9232E"/>
<path d="M157.317 74.2449V78.2233H155.659V74.2449H154.333V72.9188H158.974V74.2449H157.317Z" fill="#D9232E"/>
<path fill-rule="evenodd" clip-rule="evenodd" d="M162.256 78.6211C164.146 78.6211 164.776 77.3281 164.942 76.9303L163.516 76.6982C163.284 77.1292 162.853 77.3944 162.256 77.3944C161.66 77.3944 161.328 77.1292 161.162 76.8971C160.997 76.6651 160.897 76.3004 160.897 75.9689H164.975V75.8694C164.975 75.2727 164.909 74.4107 164.312 73.7145C163.947 73.2835 163.317 72.8193 162.19 72.8193C161.56 72.8193 160.798 72.9851 160.168 73.615C159.77 73.9797 159.339 74.6427 159.339 75.7368C159.339 76.5656 159.571 77.295 160.201 77.8586C160.731 78.3559 161.394 78.6211 162.256 78.6211ZM162.223 73.9134C162.787 73.9134 163.417 74.2781 163.516 75.0074H160.963C161.096 74.2781 161.66 73.9134 162.223 73.9134Z" fill="#D9232E"/>
<path d="M165.937 72.9188H167.263V74.908H169.583V72.9188H170.909V78.2233H169.583V75.9026H167.263V78.2233H165.937V72.9188Z" fill="#D9232E"/>
<path fill-rule="evenodd" clip-rule="evenodd" d="M23.9075 22.5642C23.9075 17.4604 28.0711 13.2968 33.2085 13.2968C38.3123 13.2968 42.5095 17.4604 42.5095 22.5642C42.5095 27.7016 38.3123 31.8652 33.2085 31.8652C28.0711 31.8652 23.9075 27.7016 23.9075 22.5642ZM27.5339 22.5642C27.5339 25.6869 30.0858 28.2388 33.2085 28.2388C36.3312 28.2388 38.8831 25.6869 38.8831 22.5642C38.8831 19.4415 36.3312 16.9231 33.2085 16.9231C30.0858 16.9231 27.5339 19.4415 27.5339 22.5642Z" fill="#D9232E"/>
<path d="M44.3563 33.7456L44.3899 33.712C47.244 30.8579 48.9901 26.9293 48.9901 22.5642C48.9901 13.8676 41.9052 6.78271 33.2085 6.78271C24.5119 6.78271 17.427 13.8676 17.427 22.5642C17.427 26.9293 19.2066 30.8915 22.0271 33.712C22.3629 34.0478 22.833 34.2493 23.3367 34.2493C24.344 34.2493 25.1499 33.4434 25.1499 32.4361C25.1499 31.9324 24.9148 31.4623 24.5791 31.1266C22.3965 28.944 21.0534 25.922 21.0534 22.5642C21.0534 15.8487 26.493 10.4091 33.2085 10.4091C39.9241 10.4091 45.3637 15.8487 45.3637 22.5642C45.3637 25.922 44.0205 28.9776 41.8044 31.1601L26.0229 46.9417L28.6084 49.4936L44.3563 33.7456Z" fill="#D9232E"/>
<path d="M55.504 22.5642C55.504 10.2748 45.5315 0.268616 33.2084 0.268616C20.8854 0.268616 10.9128 10.2748 10.9128 22.5642C10.9128 28.7089 13.3976 34.3164 17.4269 38.3122C17.7627 38.6479 18.1992 38.8494 18.7364 38.8494C19.7102 38.8494 20.5496 38.0435 20.5496 37.0362C20.5496 36.5325 20.3146 36.0625 19.9788 35.7267C16.6211 32.3689 14.5392 27.7016 14.5392 22.5642C14.5392 12.2894 22.9001 3.89501 33.2084 3.89501C43.5168 3.89501 51.8777 12.2894 51.8777 22.5642C51.8777 27.7352 49.7958 32.4025 46.4045 35.7603L30.623 51.5418L33.2084 54.0937L48.99 38.3122C53.0193 34.2828 55.504 28.7089 55.504 22.5642Z" fill="#D9232E"/>
<path d="M0 66.2635L1.54457 57.8019H2.68622L4.93592 63.2415L7.28636 57.8019H8.42801L9.83827 66.2635H8.19296L7.42067 61.0925L5.13739 66.3978H4.70088L2.51833 61.1597L1.64531 66.2635H0Z" fill="#D9232E"/>
<path fill-rule="evenodd" clip-rule="evenodd" d="M14.8077 60.891C14.4384 60.7567 14.0354 60.6896 13.5989 60.6896C13.1624 60.6896 12.7595 60.7567 12.3901 60.891C12.0208 61.0254 11.685 61.1932 11.4164 61.4619C11.1477 61.7305 10.9127 62.0327 10.7448 62.402C10.5769 62.7714 10.5098 63.1407 10.5098 63.5773C10.5098 64.0138 10.5769 64.4167 10.7448 64.7861C10.9127 65.1218 11.1477 65.4576 11.4164 65.6927C11.685 65.9613 12.0208 66.1292 12.3901 66.2635C12.7595 66.3978 13.1624 66.4649 13.5989 66.4649C14.0354 66.4649 14.4384 66.3978 14.8077 66.2635C15.1771 66.1292 15.5128 65.9613 15.7815 65.6927C16.0837 65.4576 16.2851 65.1218 16.453 64.7861C16.6209 64.4167 16.7216 64.0138 16.7216 63.5773C16.7216 63.1407 16.6209 62.7714 16.453 62.402C16.2851 62.0327 16.0837 61.7305 15.815 61.4619C15.5128 61.1932 15.1771 61.0254 14.8077 60.891ZM14.707 64.6517C14.4048 64.9539 14.0354 65.0883 13.5989 65.0883C13.1624 65.1218 12.7931 64.9539 12.5244 64.6853C12.2222 64.3831 12.0879 64.0138 12.0879 63.5773C12.0879 63.1407 12.2222 62.805 12.5244 62.5028C12.7931 62.2006 13.1624 62.0327 13.5989 62.0327C14.0354 62.0663 14.4048 62.2006 14.707 62.5028C14.9756 62.805 15.1435 63.1407 15.1435 63.5773C15.1435 64.0138 14.9756 64.3831 14.707 64.6517Z" fill="#D9232E"/>
<path d="M21.9934 61.0254V62.5028C21.8255 62.3685 21.6576 62.2677 21.4561 62.167C21.2211 62.0998 21.0196 62.0327 20.751 62.0327C20.2809 62.0327 19.9116 62.2006 19.643 62.5028C19.3408 62.805 19.24 63.1407 19.24 63.5773C19.24 64.0138 19.3743 64.3831 19.6765 64.6853C19.9787 64.9539 20.3481 65.0883 20.8182 65.0883C21.0196 65.0883 21.2211 65.0547 21.4561 64.9875C21.6576 64.9204 21.8255 64.7861 21.9934 64.6182V66.1292C21.7919 66.2299 21.5569 66.2971 21.3218 66.3642C21.0868 66.4314 20.8517 66.4649 20.6167 66.4649C20.2138 66.4314 19.8108 66.3642 19.4415 66.2299C19.0721 66.0956 18.7699 65.8941 18.5013 65.6591C18.2327 65.424 18.0312 65.1218 17.8633 64.7525C17.729 64.4167 17.6619 64.0138 17.6619 63.6108C17.6619 63.1407 17.729 62.7042 17.8969 62.3349C18.0648 61.9655 18.2998 61.6633 18.602 61.3947C18.8707 61.1597 19.1729 60.9918 19.5086 60.8575C19.8108 60.7567 20.1802 60.6896 20.5495 60.6896C20.8182 60.6896 21.0868 60.7232 21.3218 60.7903C21.5569 60.8239 21.7919 60.9246 21.9934 61.0254Z" fill="#D9232E"/>
<path d="M23.3701 60.8574H24.8811V62.9728L26.9294 60.8574H28.8097L26.3585 63.275L28.944 66.2634H26.9965L25.1162 64.0473L24.8811 64.2823V66.2634H23.3701V60.8574Z" fill="#D9232E"/>
<path fill-rule="evenodd" clip-rule="evenodd" d="M33.242 60.891C32.8727 60.7567 32.4698 60.6896 32.0332 60.6896C31.5967 60.6896 31.1938 60.7567 30.8244 60.891C30.4551 61.0254 30.1529 61.1932 29.8507 61.4619C29.5821 61.7305 29.347 62.0327 29.1791 62.402C29.0112 62.7714 28.9441 63.1407 28.9441 63.5773C28.9441 64.0138 29.0112 64.4167 29.1791 64.7861C29.347 65.1218 29.5821 65.4576 29.8507 65.6927C30.1529 65.9613 30.4551 66.1292 30.8244 66.2635C31.1938 66.3978 31.5967 66.4649 32.0332 66.4649C32.4698 66.4649 32.8727 66.3978 33.242 66.2635C33.6114 66.1292 33.9472 65.9613 34.2494 65.6927C34.518 65.4576 34.7195 65.1218 34.8873 64.7861C35.0552 64.4167 35.156 64.0138 35.156 63.5773C35.156 63.1407 35.0552 62.7714 34.8873 62.402C34.7195 62.0327 34.518 61.7305 34.2494 61.4619C33.9472 61.1932 33.6114 61.0254 33.242 60.891ZM33.1413 64.6517C32.8391 64.9539 32.4698 65.0883 32.0332 65.0883C31.5967 65.1218 31.2274 64.9539 30.9588 64.6853C30.6566 64.3831 30.5222 64.0138 30.5222 63.5773C30.5222 63.1407 30.6566 62.805 30.9588 62.5028C31.2274 62.2006 31.5967 62.0327 32.0332 62.0327C32.4698 62.0663 32.8391 62.2006 33.1413 62.5028C33.4099 62.805 33.5778 63.1407 33.5778 63.5773C33.5778 64.0138 33.4099 64.3831 33.1413 64.6517Z" fill="#D9232E"/>
<path fill-rule="evenodd" clip-rule="evenodd" d="M36.2305 60.8574H38.6145C38.9503 60.8574 39.1853 60.891 39.3868 60.9582C39.5882 60.9917 39.7561 61.0925 39.924 61.1932C40.0583 61.3275 40.1926 61.4618 40.2934 61.6633C40.3941 61.8312 40.4277 62.0326 40.4277 62.2677C40.4277 62.5027 40.3605 62.7042 40.2262 62.9057C40.0919 63.1071 39.924 63.275 39.689 63.3758C39.8233 63.4093 39.924 63.4429 40.0583 63.5101C40.1926 63.5772 40.2934 63.6444 40.3941 63.7115L40.3941 63.7115C40.5284 63.8458 40.6291 64.0137 40.6963 64.1816C40.7635 64.3495 40.797 64.5174 40.797 64.7189C40.797 64.9875 40.7635 65.2225 40.6627 65.424C40.562 65.6255 40.3941 65.7933 40.2262 65.9277C40.0919 66.062 39.8904 66.1291 39.689 66.1963C39.4875 66.2634 39.2525 66.2634 39.0174 66.2634H36.2305V60.8574ZM37.7415 63.0064H38.4466H38.6816C38.7488 62.9728 38.816 62.9392 38.8495 62.9057C38.9167 62.8721 38.9838 62.8385 39.0174 62.7714C39.051 62.7042 39.051 62.637 39.051 62.5363C39.051 62.4692 39.051 62.402 39.0174 62.3348C38.9838 62.2677 38.9503 62.2005 38.8831 62.167C38.8495 62.1334 38.7824 62.0998 38.7152 62.0998C38.704 62.0998 38.6854 62.0961 38.6605 62.0911C38.6108 62.0811 38.5361 62.0662 38.4466 62.0662H37.7415V63.0064ZM38.4802 65.0882H37.7415V63.9801H38.5138C38.5641 63.9969 38.6145 64.0053 38.6649 64.0137C38.7152 64.0221 38.7656 64.0305 38.816 64.0473C38.9167 64.0473 38.9838 64.0809 39.051 64.1145C39.0678 64.148 39.093 64.1732 39.1182 64.1984C39.1433 64.2236 39.1685 64.2488 39.1853 64.2823C39.2189 64.3495 39.2189 64.4167 39.2189 64.5174C39.2189 64.5845 39.2189 64.6853 39.1853 64.7524C39.1653 64.8124 39.1335 64.8485 39.1039 64.8821C39.0837 64.905 39.0646 64.9267 39.051 64.9539C39.0174 64.9707 38.9754 64.9875 38.9335 65.0043C38.8915 65.0211 38.8495 65.0378 38.816 65.0546C38.7692 65.0546 38.7225 65.0619 38.6723 65.0696C38.6145 65.0786 38.5522 65.0882 38.4802 65.0882Z" fill="#D9232E"/>
<path d="M46.0016 61.0254V62.5028C45.8337 62.3685 45.6322 62.2677 45.4308 62.167C45.2293 62.0998 44.9942 62.0327 44.7592 62.0327C44.2555 62.0327 43.8862 62.2006 43.6176 62.5028C43.3489 62.805 43.2146 63.1407 43.2146 63.5773C43.2146 64.0138 43.3825 64.3831 43.6511 64.6853C43.9533 64.9539 44.3227 65.0883 44.7928 65.0883C45.0278 65.0883 45.2293 65.0547 45.4308 64.9875C45.6322 64.9204 45.8337 64.7861 46.0016 64.6182V66.1292C45.7665 66.2299 45.5651 66.2971 45.33 66.3642C45.095 66.4314 44.8599 66.4649 44.5913 66.4649C44.1884 66.4314 43.7854 66.3642 43.4161 66.2299C43.0467 66.0956 42.7445 65.8941 42.5095 65.6591C42.2409 65.424 42.0058 65.1218 41.8715 64.7525C41.7036 64.4167 41.6365 64.0138 41.6365 63.6108C41.6365 63.1407 41.7372 62.7042 41.9051 62.3349C42.073 61.9655 42.2745 61.6633 42.5767 61.3947C42.8453 61.1597 43.1475 60.9918 43.4832 60.8575C43.819 60.7567 44.1548 60.6896 44.5242 60.6896C44.7928 60.6896 45.0614 60.7232 45.2964 60.7903C45.5315 60.8239 45.7665 60.9246 46.0016 61.0254Z" fill="#D9232E"/>
<path d="M47.2773 60.8574H48.7883V62.9728L50.803 60.8574H52.7169L50.2658 63.275L52.8512 66.2634H50.9037L49.0234 64.0473L48.7883 64.2823V66.2634H47.2773V60.8574Z" fill="#D9232E"/>
<path d="M53.5901 60.8574H55.1347V64.2152L57.6194 60.8574H59.164V66.2634H57.6194V62.9392L55.1347 66.2634H53.5901V60.8574Z" fill="#D9232E"/>
<path fill-rule="evenodd" clip-rule="evenodd" d="M65.5101 58.6414L64.5364 58.1713C64.4692 58.4063 64.3349 58.5742 64.167 58.7421C63.9655 58.8764 63.7305 58.9436 63.4619 58.9436C63.1932 58.9436 62.9918 58.8764 62.7903 58.7421C62.5888 58.5742 62.4545 58.4063 62.421 58.1713L61.4136 58.6414C61.5479 59.0443 61.8166 59.3801 62.1859 59.5815C62.5888 59.8166 62.9918 59.9173 63.4619 59.9173C63.932 59.9173 64.3685 59.8166 64.7378 59.6151C65.1072 59.3801 65.3758 59.0443 65.5101 58.6414ZM62.2195 60.8575H60.7085V66.2635H62.2195L64.7378 62.9393V66.2635H66.2488V60.8575H64.7378L62.2195 64.2153V60.8575Z" fill="#D9232E"/>
<path d="M10.4427 71.468H8.56239V78.385H6.95066V71.468H5.07031V70.0577H10.4427V71.468Z" fill="#D9232E"/>
<path fill-rule="evenodd" clip-rule="evenodd" d="M11.9873 81.2727V77.6799C12.1888 77.9821 12.4574 78.2171 12.7596 78.3514C13.0282 78.4857 13.364 78.5529 13.7334 78.5529C14.5056 78.5529 15.1772 78.2843 15.6809 77.747C16.1845 77.2098 16.4196 76.5046 16.4196 75.6652C16.4196 74.8593 16.1845 74.1878 15.6809 73.6505C15.1772 73.0797 14.5392 72.8111 13.7669 72.8111C13.364 72.8111 13.0282 72.8783 12.726 73.0461C12.4238 73.1805 12.1888 73.4155 11.9873 73.6841V72.979H10.4763V81.2727H11.9873ZM12.2559 74.5907C12.5246 74.3221 12.8939 74.1542 13.3304 74.1542C13.7669 74.1542 14.1363 74.3221 14.4049 74.6243C14.7071 74.8929 14.8414 75.2623 14.8414 75.6988C14.8414 76.1353 14.7071 76.5046 14.4049 76.7733C14.1363 77.0755 13.7669 77.2098 13.3304 77.2098C12.8939 77.2098 12.5581 77.0755 12.2559 76.7733C11.9873 76.5046 11.853 76.1353 11.853 75.6988C11.8194 75.2623 11.9873 74.8929 12.2559 74.5907Z" fill="#D9232E"/>
<path fill-rule="evenodd" clip-rule="evenodd" d="M21.7584 72.979V73.6841C21.557 73.4155 21.3219 73.1805 21.0197 73.0461C20.7511 72.8783 20.3817 72.8111 20.0124 72.8111C19.2065 72.8111 18.5685 73.0797 18.0649 73.6505C17.5612 74.1878 17.3262 74.8593 17.3262 75.6988C17.3262 76.5046 17.5948 77.1762 18.0985 77.747C18.6021 78.2843 19.2737 78.5529 20.0795 78.5529C20.4489 78.5529 20.7511 78.4857 21.0197 78.3514C21.3219 78.2171 21.557 77.9821 21.7584 77.6799V78.385H23.2694V72.979H21.7584ZM19.3073 74.5907C19.6095 74.3221 19.9452 74.1542 20.4153 74.1542C20.8518 74.1542 21.1876 74.3221 21.4898 74.5907C21.7584 74.8929 21.8927 75.2623 21.8927 75.6988C21.8927 76.1353 21.7584 76.5046 21.4562 76.7733C21.1876 77.0755 20.8518 77.2098 20.4153 77.2098C19.9452 77.2098 19.6095 77.0755 19.3073 76.7733C19.0386 76.5046 18.9043 76.1353 18.9043 75.6988C18.9043 75.2623 19.0386 74.8929 19.3073 74.5907Z" fill="#D9232E"/>
<path d="M24.6797 78.385V72.979H26.2243V74.8929H28.3397V72.979H29.8842V78.385H28.3397V76.2025H26.2243V78.385H24.6797Z" fill="#D9232E"/>
<path d="M35.3909 73.1469V74.6243C35.223 74.49 35.0215 74.3557 34.82 74.2885C34.6186 74.1878 34.4171 74.1542 34.1485 74.1542C33.6784 74.1542 33.2755 74.3221 33.0068 74.6243C32.7382 74.8929 32.6039 75.2623 32.6375 75.6652C32.6375 76.1353 32.7718 76.5046 33.074 76.7733C33.3762 77.0755 33.7455 77.2098 34.2156 77.2098C34.4171 77.2098 34.6186 77.1762 34.82 77.109C35.0215 77.0083 35.223 76.9076 35.3909 76.7397V78.2171C35.1894 78.3514 34.9543 78.4186 34.7193 78.4857C34.4843 78.5529 34.2492 78.5529 34.0142 78.5529C33.5777 78.5529 33.2083 78.4857 32.8389 78.3514C32.4696 78.2171 32.1674 78.0156 31.8988 77.7806C31.6301 77.5456 31.4287 77.2434 31.2608 76.874C31.1265 76.5382 31.0593 76.1353 31.0593 75.6988C31.0593 75.2623 31.1265 74.8258 31.2944 74.4564C31.4623 74.087 31.6973 73.7848 31.9995 73.5162C32.2681 73.2812 32.5367 73.1133 32.9061 72.979C33.2083 72.8783 33.5777 72.8111 33.947 72.8111C34.2156 72.8111 34.4843 72.8447 34.7193 72.8783C34.9543 72.9454 35.1894 73.0126 35.3909 73.1469Z" fill="#D9232E"/>
<path d="M36.7004 72.979H41.8378V78.385H40.2933V74.2885H38.2114V78.385H36.7004V72.979Z" fill="#D9232E"/>
<path fill-rule="evenodd" clip-rule="evenodd" d="M47.1766 73.0126C46.8073 72.8783 46.4379 72.8111 46.0014 72.8111C45.5649 72.8111 45.1619 72.8783 44.7926 73.0126C44.4232 73.1469 44.0875 73.3148 43.8188 73.5834C43.5166 73.8184 43.3152 74.1542 43.1473 74.5236C42.9794 74.8593 42.8787 75.2623 42.8787 75.6988C42.8787 76.1353 42.9794 76.5382 43.1473 76.874C43.3152 77.2434 43.5166 77.5456 43.8188 77.8142C44.0875 78.0492 44.4232 78.2507 44.7926 78.385C45.1619 78.5193 45.5649 78.5529 46.0014 78.5529C46.4379 78.5529 46.8408 78.5193 47.1766 78.385C47.5795 78.2507 47.8817 78.0492 48.1839 77.8142C48.4526 77.5456 48.6876 77.2434 48.8555 76.874C49.0234 76.5382 49.0905 76.1353 49.0905 75.6988C49.0905 75.2623 49.0234 74.8593 48.8555 74.5236C48.6876 74.1542 48.4526 73.8184 48.1839 73.5834C47.8817 73.3148 47.5795 73.1469 47.1766 73.0126ZM47.0759 76.7733C46.8073 77.0755 46.4379 77.2098 46.0014 77.2098C45.5649 77.2434 45.1955 77.0755 44.8933 76.7733C44.6247 76.4711 44.4568 76.1353 44.4568 75.6988C44.4568 75.2623 44.6247 74.8929 44.8933 74.6243C45.1955 74.3221 45.5649 74.1542 46.0014 74.1542C46.4379 74.1542 46.8073 74.3221 47.0759 74.6243C47.3781 74.9265 47.5124 75.2623 47.5124 75.6988C47.5124 76.1353 47.3781 76.4711 47.0759 76.7733Z" fill="#D9232E"/>
<path fill-rule="evenodd" clip-rule="evenodd" d="M51.7096 81.2727V77.6799C51.9111 77.9821 52.1461 78.2171 52.4483 78.3514C52.7505 78.4857 53.0863 78.5529 53.4221 78.5529C54.2279 78.5529 54.8659 78.2843 55.3696 77.747C55.8733 77.2098 56.1419 76.5046 56.1419 75.6988C56.1419 74.8593 55.8733 74.1878 55.4032 73.6505C54.8995 73.0797 54.2615 72.8111 53.4557 72.8111C53.0863 72.8111 52.7169 72.8783 52.4147 73.0461C52.1461 73.1805 51.8775 73.4155 51.7096 73.6841V72.979H50.165V81.2727H51.7096ZM51.9782 74.5907C52.2469 74.3221 52.6162 74.1542 53.0527 74.1542C53.4892 74.1542 53.8586 74.3221 54.1272 74.6243C54.4294 74.8929 54.5637 75.2623 54.5637 75.6652C54.5637 76.1353 54.3958 76.5046 54.1272 76.7733C53.8586 77.0755 53.4892 77.2098 53.0527 77.2098C52.6162 77.2098 52.2469 77.0755 51.9782 76.7733C51.676 76.5046 51.5417 76.1353 51.5417 75.6988C51.5417 75.2623 51.676 74.8929 51.9782 74.5907Z" fill="#D9232E"/>
<path d="M61.1785 74.2885H59.7011V78.385H58.1565V74.2885H56.6455V72.979H61.1785V74.2885Z" fill="#D9232E"/>
<rect x="80" width="2" height="54" fill="#D9232E"/>
</svg>
